<?xml version="1.0" encoding="UTF-8"?>
<!DOCTYPE svg PUBLIC "-//W3C//DTD SVG 1.1//EN" "http://www.w3.org/Graphics/SVG/1.1/DTD/svg11.dtd">
<svg xmlns="http://www.w3.org/2000/svg" version="1.1" width="80px" height="80px" style="shape-rendering:geometricPrecision; text-rendering:geometricPrecision; image-rendering:optimizeQuality; fill-rule:evenodd; clip-rule:evenodd" xmlns:xlink="http://www.w3.org/1999/xlink">
<g><path style="opacity:0.996" fill="#ef92db" d="M 54.5,7.5 C 54.5,8.5 54.5,9.5 54.5,10.5C 53.209,10.2627 52.209,10.596 51.5,11.5C 49.4832,10.4706 47.4832,9.47061 45.5,8.5C 45.5,7.83333 45.5,7.16667 45.5,6.5C 47.4464,3.18599 50.1131,2.68599 53.5,5C 54.2524,5.67076 54.5858,6.5041 54.5,7.5 Z"/></g>
<g><path style="opacity:0.992" fill="#e2b5bd" d="M 44.5,6.5 C 43.6236,6.36912 42.9569,6.70245 42.5,7.5C 41.9724,9.33612 41.3058,11.0028 40.5,12.5C 40.5,11.8333 40.5,11.1667 40.5,10.5C 39.8386,6.48279 41.1719,5.14946 44.5,6.5 Z"/></g>
<g><path style="opacity:0.992" fill="#cd70b1" d="M 31.5,5.5 C 31.6107,6.11742 31.944,6.61742 32.5,7C 30.7669,8.18889 29.1002,9.35556 27.5,10.5C 26.209,10.2627 25.209,10.596 24.5,11.5C 21.858,11.4877 20.5246,12.821 20.5,15.5C 19.8333,15.5 19.1667,15.5 18.5,15.5C 18.5,15.1667 18.5,14.8333 18.5,14.5C 19.4511,13.0813 19.7845,11.4147 19.5,9.5C 22.3213,9.68406 23.9879,8.35073 24.5,5.5C 26.9133,2.87601 29.2466,2.87601 31.5,5.5 Z"/></g>
<g><path style="opacity:0.996" fill="#c2456f" d="M 44.5,6.5 C 44.8333,6.5 45.1667,6.5 45.5,6.5C 45.5,7.16667 45.5,7.83333 45.5,8.5C 45.5,9.16667 45.5,9.83333 45.5,10.5C 46.1667,11.5 46.8333,12.5 47.5,13.5C 46.6016,14.1577 45.6016,14.8243 44.5,15.5C 44.6667,15.8333 44.8333,16.1667 45,16.5C 47.0454,17.9265 49.2121,18.9265 51.5,19.5C 49.5,19.5 47.5,19.5 45.5,19.5C 45.1667,19.5 44.8333,19.5 44.5,19.5C 43.2921,18.7659 41.9587,18.4326 40.5,18.5C 40.5,16.5 40.5,14.5 40.5,12.5C 41.3058,11.0028 41.9724,9.33612 42.5,7.5C 42.9569,6.70245 43.6236,6.36912 44.5,6.5 Z"/></g>
<g><path style="opacity:0.992" fill="#bf4293" d="M 24.5,11.5 C 26.1207,11.7869 27.1207,12.7869 27.5,14.5C 27.0431,15.2975 26.3764,15.6309 25.5,15.5C 24.5,14.1667 23.5,14.1667 22.5,15.5C 21.8333,15.5 21.1667,15.5 20.5,15.5C 20.5246,12.821 21.858,11.4877 24.5,11.5 Z"/></g>
<g><path style="opacity:0.996" fill="#c5548a" d="M 24.5,11.5 C 25.209,10.596 26.209,10.2627 27.5,10.5C 29.4832,10.1568 30.8166,10.8235 31.5,12.5C 30.5655,13.5676 30.2322,14.901 30.5,16.5C 29.7784,16.9175 29.2784,17.5842 29,18.5C 27.8549,17.3636 26.6883,16.3636 25.5,15.5C 26.3764,15.6309 27.0431,15.2975 27.5,14.5C 27.1207,12.7869 26.1207,11.7869 24.5,11.5 Z"/></g>
<g><path style="opacity:0.992" fill="#efa3c7" d="M 37.5,10.5 C 36.0779,10.7496 35.0779,11.583 34.5,13C 33.2506,13.7401 32.2506,13.5735 31.5,12.5C 30.8166,10.8235 29.4832,10.1568 27.5,10.5C 29.1002,9.35556 30.7669,8.18889 32.5,7C 31.944,6.61742 31.6107,6.11742 31.5,5.5C 35.6683,4.00813 37.6683,5.6748 37.5,10.5 Z"/></g>
<g><path style="opacity:0.988" fill="#ed71c9" d="M 45.5,8.5 C 47.4832,9.47061 49.4832,10.4706 51.5,11.5C 53.5914,11.6816 55.5914,11.3482 57.5,10.5C 57.8333,10.8333 58.1667,11.1667 58.5,11.5C 57.6602,12.735 56.6602,13.735 55.5,14.5C 53.8297,14.7512 52.3297,15.4178 51,16.5C 50.3512,13.3534 48.5179,11.3534 45.5,10.5C 45.5,9.83333 45.5,9.16667 45.5,8.5 Z"/></g>
<g><path style="opacity:0.89" fill="#e9b8cf" d="M 54.5,7.5 C 55.8304,8.83214 57.4971,9.66548 59.5,10C 60.8333,11 60.8333,12 59.5,13C 60.0944,13.4643 60.7611,13.631 61.5,13.5C 60.7095,14.4013 59.7095,15.0679 58.5,15.5C 57.791,14.596 56.791,14.2627 55.5,14.5C 56.6602,13.735 57.6602,12.735 58.5,11.5C 58.1667,11.1667 57.8333,10.8333 57.5,10.5C 55.5914,11.3482 53.5914,11.6816 51.5,11.5C 52.209,10.596 53.209,10.2627 54.5,10.5C 54.5,9.5 54.5,8.5 54.5,7.5 Z"/></g>
<g><path style="opacity:0.996" fill="#de6a98" d="M 37.5,10.5 C 37.8333,10.5 38.1667,10.5 38.5,10.5C 38.5,12.8333 38.5,15.1667 38.5,17.5C 38.1667,17.5 37.8333,17.5 37.5,17.5C 34.7151,16.1153 32.3817,16.782 30.5,19.5C 30.5,18.5 30.5,17.5 30.5,16.5C 30.2322,14.901 30.5655,13.5676 31.5,12.5C 32.2506,13.5735 33.2506,13.7401 34.5,13C 35.0779,11.583 36.0779,10.7496 37.5,10.5 Z"/></g>
<g><path style="opacity:0.996" fill="#66733d" d="M 38.5,10.5 C 39.1667,10.5 39.8333,10.5 40.5,10.5C 40.5,11.1667 40.5,11.8333 40.5,12.5C 40.5,14.5 40.5,16.5 40.5,18.5C 39.8333,18.1667 39.1667,17.8333 38.5,17.5C 38.5,15.1667 38.5,12.8333 38.5,10.5 Z"/></g>
<g><path style="opacity:0.996" fill="#d75785" d="M 47.5,13.5 C 49.1042,14.287 49.7709,15.6203 49.5,17.5C 50.5,17.5 51.5,17.5 52.5,17.5C 52.5,18.5 52.5,19.5 52.5,20.5C 51.8333,20.5 51.5,20.1667 51.5,19.5C 49.2121,18.9265 47.0454,17.9265 45,16.5C 44.8333,16.1667 44.6667,15.8333 44.5,15.5C 45.6016,14.8243 46.6016,14.1577 47.5,13.5 Z"/></g>
<g><path style="opacity:0.992" fill="#f08fb8" d="M 45.5,10.5 C 48.5179,11.3534 50.3512,13.3534 51,16.5C 52.3297,15.4178 53.8297,14.7512 55.5,14.5C 56.791,14.2627 57.791,14.596 58.5,15.5C 58.5,16.8333 59.1667,17.5 60.5,17.5C 58.9275,18.6873 57.2608,19.6873 55.5,20.5C 55.1961,21.1499 54.8627,21.8165 54.5,22.5C 55.7472,24.323 56.4139,26.323 56.5,28.5C 56.1667,28.5 55.8333,28.5 55.5,28.5C 54.5,25.8333 53.5,23.1667 52.5,20.5C 52.5,19.5 52.5,18.5 52.5,17.5C 51.5,17.5 50.5,17.5 49.5,17.5C 49.7709,15.6203 49.1042,14.287 47.5,13.5C 46.8333,12.5 46.1667,11.5 45.5,10.5 Z"/></g>
<g><path style="opacity:0.996" fill="#dc8bd8" d="M 18.5,14.5 C 18.5,14.8333 18.5,15.1667 18.5,15.5C 14.0699,15.0115 11.7366,17.0115 11.5,21.5C 11.19,22.7383 10.69,22.7383 10,21.5C 9.50999,22.7932 9.34332,24.1266 9.5,25.5C 8.83333,25.5 8.16667,25.5 7.5,25.5C 7.38929,24.8826 7.05596,24.3826 6.5,24C 8.37728,21.7487 9.87728,19.2487 11,16.5C 13.0898,13.8527 15.5898,13.1861 18.5,14.5 Z"/></g>
<g><path style="opacity:0.996" fill="#b7245c" d="M 25.5,15.5 C 26.6883,16.3636 27.8549,17.3636 29,18.5C 29.2784,17.5842 29.7784,16.9175 30.5,16.5C 30.5,17.5 30.5,18.5 30.5,19.5C 30.5,20.1667 30.5,20.8333 30.5,21.5C 30.1667,21.5 29.8333,21.5 29.5,21.5C 27.203,20.1653 25.203,18.3319 23.5,16C 24.0944,15.5357 24.7611,15.369 25.5,15.5 Z"/></g>
<g><path style="opacity:0.855" fill="#bad494" d="M 61.5,13.5 C 63.7373,14.449 66.0706,15.1156 68.5,15.5C 68.634,17.2915 68.3007,18.9582 67.5,20.5C 66.8333,19.8333 66.1667,19.1667 65.5,18.5C 64.0813,17.5489 62.4147,17.2155 60.5,17.5C 59.1667,17.5 58.5,16.8333 58.5,15.5C 59.7095,15.0679 60.7095,14.4013 61.5,13.5 Z"/></g>
<g><path style="opacity:0.996" fill="#a840a0" d="M 18.5,15.5 C 19.1667,15.5 19.8333,15.5 20.5,15.5C 21.1667,15.5 21.8333,15.5 22.5,15.5C 22.4431,16.609 22.1098,17.609 21.5,18.5C 20.5416,18.0472 19.7083,17.3805 19,16.5C 18.5172,17.448 18.3505,18.448 18.5,19.5C 17.209,19.2627 16.209,19.596 15.5,20.5C 14.5,20.8333 13.8333,21.5 13.5,22.5C 12.8333,22.1667 12.1667,21.8333 11.5,21.5C 11.7366,17.0115 14.0699,15.0115 18.5,15.5 Z"/></g>
<g><path style="opacity:0.996" fill="#ad3490" d="M 37.5,17.5 C 37.8333,17.5 38.1667,17.5 38.5,17.5C 39.1667,17.8333 39.8333,18.1667 40.5,18.5C 41.9587,18.4326 43.2921,18.7659 44.5,19.5C 44.7678,21.099 44.4345,22.4324 43.5,23.5C 42.4415,22.3998 41.6082,21.0664 41,19.5C 40.6667,20.5 40.3333,21.5 40,22.5C 39.3292,21.7476 38.4959,21.4142 37.5,21.5C 36.7701,20.2876 35.7701,19.2876 34.5,18.5C 35.325,17.6143 36.325,17.281 37.5,17.5 Z"/></g>
<g><path style="opacity:0.996" fill="#ca59c5" d="M 37.5,17.5 C 36.325,17.281 35.325,17.6143 34.5,18.5C 35.7701,19.2876 36.7701,20.2876 37.5,21.5C 36.3065,22.2719 35.3065,23.2719 34.5,24.5C 32.0274,24.9118 30.6941,23.9118 30.5,21.5C 30.5,20.8333 30.5,20.1667 30.5,19.5C 32.3817,16.782 34.7151,16.1153 37.5,17.5 Z"/></g>
<g><path style="opacity:0.992" fill="#db7ed9" d="M 21.5,18.5 C 21.1667,19.8333 20.8333,21.1667 20.5,22.5C 19.2502,22.5774 18.4169,23.244 18,24.5C 16.2942,23.6921 15.4609,22.3588 15.5,20.5C 16.209,19.596 17.209,19.2627 18.5,19.5C 18.3505,18.448 18.5172,17.448 19,16.5C 19.7083,17.3805 20.5416,18.0472 21.5,18.5 Z"/></g>
<g><path style="opacity:0.992" fill="#a93c68" d="M 45.5,19.5 C 47.5,19.5 49.5,19.5 51.5,19.5C 51.5,20.1667 51.8333,20.5 52.5,20.5C 53.5,23.1667 54.5,25.8333 55.5,28.5C 55.5,28.8333 55.5,29.1667 55.5,29.5C 53.9826,29.5106 52.8159,30.1772 52,31.5C 50.4412,29.7834 49.6079,27.7834 49.5,25.5C 49.7373,24.209 49.404,23.209 48.5,22.5C 47.391,22.4431 46.391,22.1098 45.5,21.5C 45.5,20.8333 45.5,20.1667 45.5,19.5 Z"/></g>
<g><path style="opacity:0.996" fill="#e774d6" d="M 60.5,17.5 C 62.4147,17.2155 64.0813,17.5489 65.5,18.5C 64.325,18.281 63.325,18.6143 62.5,19.5C 64.7734,21.7506 66.1067,24.0839 66.5,26.5C 65.8728,27.4168 65.5394,28.4168 65.5,29.5C 64.8333,29.5 64.1667,29.5 63.5,29.5C 63.1667,29.5 62.8333,29.5 62.5,29.5C 60.8802,25.9181 58.5469,22.9181 55.5,20.5C 57.2608,19.6873 58.9275,18.6873 60.5,17.5 Z"/></g>
<g><path style="opacity:0.996" fill="#5d413e" d="M 45.5,21.5 C 46.391,22.1098 47.391,22.4431 48.5,22.5C 48.0733,25.0098 47.4067,27.3432 46.5,29.5C 46.5,29.1667 46.5,28.8333 46.5,28.5C 46.552,26.0971 46.2186,23.7638 45.5,21.5 Z"/></g>
<g><path style="opacity:0.992" fill="#b450b0" d="M 15.5,20.5 C 15.4609,22.3588 16.2942,23.6921 18,24.5C 18.4169,23.244 19.2502,22.5774 20.5,22.5C 20.5,24.1667 20.5,25.8333 20.5,27.5C 18.5648,26.8505 16.5648,26.5172 14.5,26.5C 15.4427,24.9988 15.1094,23.6654 13.5,22.5C 13.8333,21.5 14.5,20.8333 15.5,20.5 Z"/></g>
<g><path style="opacity:0.996" fill="#f09dc5" d="M 25.5,15.5 C 24.7611,15.369 24.0944,15.5357 23.5,16C 25.203,18.3319 27.203,20.1653 29.5,21.5C 29.1667,22.1667 28.8333,22.8333 28.5,23.5C 28.7381,27.0993 27.7381,27.4327 25.5,24.5C 24.8182,25.2427 24.1515,25.9094 23.5,26.5C 22.609,27.1098 21.609,27.4431 20.5,27.5C 20.5,25.8333 20.5,24.1667 20.5,22.5C 20.8333,21.1667 21.1667,19.8333 21.5,18.5C 22.1098,17.609 22.4431,16.609 22.5,15.5C 23.5,14.1667 24.5,14.1667 25.5,15.5 Z"/></g>
<g><path style="opacity:0.996" fill="#bc3faa" d="M 55.5,20.5 C 58.5469,22.9181 60.8802,25.9181 62.5,29.5C 61.9032,30.1386 61.0698,30.472 60,30.5C 58.3009,30.6134 57.1342,29.9468 56.5,28.5C 56.4139,26.323 55.7472,24.323 54.5,22.5C 54.8627,21.8165 55.1961,21.1499 55.5,20.5 Z"/></g>
<g><path style="opacity:0.996" fill="#993692" d="M 11.5,21.5 C 12.1667,21.8333 12.8333,22.1667 13.5,22.5C 15.1094,23.6654 15.4427,24.9988 14.5,26.5C 12.8333,26.5 11.1667,26.5 9.5,26.5C 9.5,26.1667 9.5,25.8333 9.5,25.5C 9.34332,24.1266 9.50999,22.7932 10,21.5C 10.69,22.7383 11.19,22.7383 11.5,21.5 Z"/></g>
<g><path style="opacity:0.996" fill="#e386dd" d="M 43.5,23.5 C 43.573,25.0269 42.9063,26.0269 41.5,26.5C 40.5,26.8333 39.8333,27.5 39.5,28.5C 37.2254,27.8888 35.5588,26.5554 34.5,24.5C 35.3065,23.2719 36.3065,22.2719 37.5,21.5C 38.4959,21.4142 39.3292,21.7476 40,22.5C 40.3333,21.5 40.6667,20.5 41,19.5C 41.6082,21.0664 42.4415,22.3998 43.5,23.5 Z"/></g>
<g><path style="opacity:0.996" fill="#8d4365" d="M 28.5,23.5 C 29.9744,24.4363 30.9744,25.7697 31.5,27.5C 30.4937,27.9377 30.4937,28.6043 31.5,29.5C 30.7777,30.5511 29.7777,31.2178 28.5,31.5C 28.0133,30.5266 27.5133,29.5266 27,28.5C 26.6012,28.7284 26.4346,29.0618 26.5,29.5C 25.2928,28.8112 23.9594,28.6446 22.5,29C 23.2524,28.3292 23.5858,27.4959 23.5,26.5C 24.1515,25.9094 24.8182,25.2427 25.5,24.5C 27.7381,27.4327 28.7381,27.0993 28.5,23.5 Z"/></g>
<g><path style="opacity:0.996" fill="#f2acd0" d="M 44.5,19.5 C 44.8333,19.5 45.1667,19.5 45.5,19.5C 45.5,20.1667 45.5,20.8333 45.5,21.5C 46.2186,23.7638 46.552,26.0971 46.5,28.5C 44.9743,29.1047 43.9743,30.2714 43.5,32C 42.552,32.4828 41.552,32.6495 40.5,32.5C 40.5172,30.4352 40.8505,28.4352 41.5,26.5C 42.9063,26.0269 43.573,25.0269 43.5,23.5C 44.4345,22.4324 44.7678,21.099 44.5,19.5 Z"/></g>
<g><path style="opacity:0.996" fill="#264412" d="M 48.5,22.5 C 49.404,23.209 49.7373,24.209 49.5,25.5C 48.5829,27.6618 48.5829,29.9952 49.5,32.5C 48.8333,33.5 48.1667,34.5 47.5,35.5C 46.5,35.5 45.5,35.5 44.5,35.5C 45.7298,33.7028 46.3964,31.7028 46.5,29.5C 47.4067,27.3432 48.0733,25.0098 48.5,22.5 Z"/></g>
<g><path style="opacity:0.996" fill="#bf6f97" d="M 9.5,26.5 C 11.1667,26.5 12.8333,26.5 14.5,26.5C 16.5648,26.5172 18.5648,26.8505 20.5,27.5C 20.5,29.1667 20.5,30.8333 20.5,32.5C 16.7749,30.4909 13.1082,28.4909 9.5,26.5 Z"/></g>
<g><path style="opacity:0.996" fill="#a73b9a" d="M 29.5,21.5 C 29.8333,21.5 30.1667,21.5 30.5,21.5C 30.6941,23.9118 32.0274,24.9118 34.5,24.5C 35.5588,26.5554 37.2254,27.8888 39.5,28.5C 39.5,28.8333 39.5,29.1667 39.5,29.5C 38.8333,29.8333 38.1667,30.1667 37.5,30.5C 35.5,29.5 33.5,28.5 31.5,27.5C 30.9744,25.7697 29.9744,24.4363 28.5,23.5C 28.8333,22.8333 29.1667,22.1667 29.5,21.5 Z"/></g>
<g><path style="opacity:0.996" fill="#dd4b9d" d="M 65.5,18.5 C 66.1667,19.1667 66.8333,19.8333 67.5,20.5C 67.2627,21.791 67.596,22.791 68.5,23.5C 70.2067,26.754 69.2067,28.754 65.5,29.5C 65.5394,28.4168 65.8728,27.4168 66.5,26.5C 66.1067,24.0839 64.7734,21.7506 62.5,19.5C 63.325,18.6143 64.325,18.281 65.5,18.5 Z"/></g>
<g><path style="opacity:0.965" fill="#5e7e4d" d="M 8.5,29.5 C 11.5712,31.8977 14.9046,33.8977 18.5,35.5C 19.9361,36.4286 21.2695,37.5952 22.5,39C 21.552,39.4828 20.552,39.6495 19.5,39.5C 18.779,37.6182 17.779,37.2848 16.5,38.5C 13.155,36.1521 10.4883,33.1521 8.5,29.5 Z"/></g>
<g><path style="opacity:0.996" fill="#906880" d="M 7.5,25.5 C 8.16667,25.5 8.83333,25.5 9.5,25.5C 9.5,25.8333 9.5,26.1667 9.5,26.5C 13.1082,28.4909 16.7749,30.4909 20.5,32.5C 19.4937,33.3957 19.4937,34.0623 20.5,34.5C 20.1583,35.3382 19.4916,35.6716 18.5,35.5C 14.9046,33.8977 11.5712,31.8977 8.5,29.5C 8.56745,28.0413 8.23411,26.7079 7.5,25.5 Z"/></g>
<g><path style="opacity:0.996" fill="#8b5873" d="M 31.5,29.5 C 32.4959,29.4142 33.3292,29.7476 34,30.5C 36.4161,38.1406 37.5828,38.1406 37.5,30.5C 38.1667,30.1667 38.8333,29.8333 39.5,29.5C 39.5,31.8333 39.5,34.1667 39.5,36.5C 40.5,36.5 41.5,36.5 42.5,36.5C 42.5,37.1667 42.1667,37.5 41.5,37.5C 39.5,37.5 37.5,37.5 35.5,37.5C 31.9666,36.9709 29.6332,34.9709 28.5,31.5C 29.7777,31.2178 30.7777,30.5511 31.5,29.5 Z"/></g>
<g><path style="opacity:0.992" fill="#f2bcd3" d="M 68.5,23.5 C 70.7528,25.4503 71.0861,27.7837 69.5,30.5C 68.391,30.5569 67.391,30.8902 66.5,31.5C 65.5,30.8333 64.5,30.1667 63.5,29.5C 64.1667,29.5 64.8333,29.5 65.5,29.5C 69.2067,28.754 70.2067,26.754 68.5,23.5 Z"/></g>
<g><path style="opacity:0.996" fill="#85516d" d="M 23.5,26.5 C 23.5858,27.4959 23.2524,28.3292 22.5,29C 23.9594,28.6446 25.2928,28.8112 26.5,29.5C 25.8002,32.1999 24.1336,33.8666 21.5,34.5C 21.1667,34.5 20.8333,34.5 20.5,34.5C 19.4937,34.0623 19.4937,33.3957 20.5,32.5C 20.5,30.8333 20.5,29.1667 20.5,27.5C 21.609,27.4431 22.609,27.1098 23.5,26.5 Z"/></g>
<g><path style="opacity:0.996" fill="#c5789e" d="M 31.5,27.5 C 33.5,28.5 35.5,29.5 37.5,30.5C 37.5828,38.1406 36.4161,38.1406 34,30.5C 33.3292,29.7476 32.4959,29.4142 31.5,29.5C 30.4937,28.6043 30.4937,27.9377 31.5,27.5 Z"/></g>
<g><path style="opacity:0.996" fill="#bf5d8a" d="M 55.5,28.5 C 55.8333,28.5 56.1667,28.5 56.5,28.5C 57.1342,29.9468 58.3009,30.6134 60,30.5C 61.0698,30.472 61.9032,30.1386 62.5,29.5C 62.8333,29.5 63.1667,29.5 63.5,29.5C 64.5,30.1667 65.5,30.8333 66.5,31.5C 63.8333,31.8333 61.1667,32.1667 58.5,32.5C 56.5,32.5 55.5,31.5 55.5,29.5C 55.5,29.1667 55.5,28.8333 55.5,28.5 Z"/></g>
<g><path style="opacity:0.992" fill="#de89af" d="M 41.5,26.5 C 40.8505,28.4352 40.5172,30.4352 40.5,32.5C 41.552,32.6495 42.552,32.4828 43.5,32C 43.9743,30.2714 44.9743,29.1047 46.5,28.5C 46.5,28.8333 46.5,29.1667 46.5,29.5C 46.3964,31.7028 45.7298,33.7028 44.5,35.5C 43.8333,35.5 43.5,35.8333 43.5,36.5C 43.1667,36.5 42.8333,36.5 42.5,36.5C 41.5,36.5 40.5,36.5 39.5,36.5C 39.5,34.1667 39.5,31.8333 39.5,29.5C 39.5,29.1667 39.5,28.8333 39.5,28.5C 39.8333,27.5 40.5,26.8333 41.5,26.5 Z"/></g>
<g><path style="opacity:0.996" fill="#2d4d1b" d="M 49.5,32.5 C 50.5,32.8333 51.1667,33.5 51.5,34.5C 51.1667,36.5 50.8333,38.5 50.5,40.5C 49.8333,40.8333 49.1667,41.1667 48.5,41.5C 48.6747,39.3792 48.3414,37.3792 47.5,35.5C 48.1667,34.5 48.8333,33.5 49.5,32.5 Z"/></g>
<g><path style="opacity:0.996" fill="#874d6c" d="M 49.5,25.5 C 49.6079,27.7834 50.4412,29.7834 52,31.5C 52.8159,30.1772 53.9826,29.5106 55.5,29.5C 55.5,31.5 56.5,32.5 58.5,32.5C 57.2655,34.3983 57.5989,36.065 59.5,37.5C 58.5,37.5 57.5,37.5 56.5,37.5C 56.1667,37.5 55.8333,37.5 55.5,37.5C 54.205,36.5116 52.8717,35.5116 51.5,34.5C 51.1667,33.5 50.5,32.8333 49.5,32.5C 48.5829,29.9952 48.5829,27.6618 49.5,25.5 Z"/></g>
<g><path style="opacity:0.996" fill="#a6cb7e" d="M 69.5,30.5 C 70.6602,31.265 71.6602,32.265 72.5,33.5C 69.7891,34.8554 67.1224,36.1888 64.5,37.5C 64.1667,36.8333 63.8333,36.1667 63.5,35.5C 64.5,34.1667 65.5,32.8333 66.5,31.5C 67.391,30.8902 68.391,30.5569 69.5,30.5 Z"/></g>
<g><path style="opacity:0.996" fill="#b47093" d="M 66.5,31.5 C 65.5,32.8333 64.5,34.1667 63.5,35.5C 62.3951,36.6005 61.0618,37.2671 59.5,37.5C 57.5989,36.065 57.2655,34.3983 58.5,32.5C 61.1667,32.1667 63.8333,31.8333 66.5,31.5 Z"/></g>
<g><path style="opacity:0.996" fill="#374e29" d="M 28.5,31.5 C 27.5318,33.6074 27.1984,35.9407 27.5,38.5C 27.5,38.8333 27.5,39.1667 27.5,39.5C 26.1149,37.1165 24.1149,35.4499 21.5,34.5C 24.1336,33.8666 25.8002,32.1999 26.5,29.5C 26.4346,29.0618 26.6012,28.7284 27,28.5C 27.5133,29.5266 28.0133,30.5266 28.5,31.5 Z"/></g>
<g><path style="opacity:0.996" fill="#254714" d="M 20.5,34.5 C 20.8333,34.5 21.1667,34.5 21.5,34.5C 24.1149,35.4499 26.1149,37.1165 27.5,39.5C 27.1961,40.1499 26.8627,40.8165 26.5,41.5C 27.6016,42.1757 28.6016,42.8423 29.5,43.5C 25.2246,44.2503 21.8913,42.917 19.5,39.5C 20.552,39.6495 21.552,39.4828 22.5,39C 21.2695,37.5952 19.9361,36.4286 18.5,35.5C 19.4916,35.6716 20.1583,35.3382 20.5,34.5 Z"/></g>
<g><path style="opacity:0.996" fill="#253c12" d="M 28.5,31.5 C 29.6332,34.9709 31.9666,36.9709 35.5,37.5C 34.791,38.404 33.791,38.7373 32.5,38.5C 30.8333,38.5 29.1667,38.5 27.5,38.5C 27.1984,35.9407 27.5318,33.6074 28.5,31.5 Z"/></g>
<g><path style="opacity:0.996" fill="#306517" d="M 42.5,36.5 C 42.8333,36.5 43.1667,36.5 43.5,36.5C 42.9717,37.8474 42.805,39.1807 43,40.5C 44.1133,38.6707 45.6133,37.8374 47.5,38C 45.0807,39.5088 44.0807,41.6755 44.5,44.5C 43.7095,45.4013 42.7095,46.0679 41.5,46.5C 40.5,46.5 39.5,46.5 38.5,46.5C 38.5,45.8333 38.5,45.1667 38.5,44.5C 38.3505,43.448 38.5172,42.448 39,41.5C 39.2189,42.938 39.7189,44.2713 40.5,45.5C 41.48,42.9135 41.8134,40.2469 41.5,37.5C 42.1667,37.5 42.5,37.1667 42.5,36.5 Z"/></g>
<g><path style="opacity:0.996" fill="#4b8829" d="M 44.5,35.5 C 45.5,35.5 46.5,35.5 47.5,35.5C 48.3414,37.3792 48.6747,39.3792 48.5,41.5C 47.5,41.8333 46.8333,42.5 46.5,43.5C 45.8333,43.8333 45.1667,44.1667 44.5,44.5C 44.0807,41.6755 45.0807,39.5088 47.5,38C 45.6133,37.8374 44.1133,38.6707 43,40.5C 42.805,39.1807 42.9717,37.8474 43.5,36.5C 43.5,35.8333 43.8333,35.5 44.5,35.5 Z"/></g>
<g><path style="opacity:0.992" fill="#5e5f57" d="M 51.5,34.5 C 52.8717,35.5116 54.205,36.5116 55.5,37.5C 53.0411,37.31 51.3745,38.31 50.5,40.5C 50.8333,38.5 51.1667,36.5 51.5,34.5 Z"/></g>
<g><path style="opacity:0.996" fill="#634e6a" d="M 19.5,39.5 C 21.8913,42.917 25.2246,44.2503 29.5,43.5C 30.9952,43.9887 32.3285,44.6554 33.5,45.5C 30.1667,45.1667 26.8333,44.8333 23.5,44.5C 22.8333,44.5 22.1667,44.5 21.5,44.5C 20.609,43.8902 19.609,43.5569 18.5,43.5C 17.0687,42.2196 16.4021,40.5529 16.5,38.5C 17.779,37.2848 18.779,37.6182 19.5,39.5 Z"/></g>
<g><path style="opacity:0.996" fill="#517d39" d="M 35.5,37.5 C 37.5,37.5 39.5,37.5 41.5,37.5C 41.8134,40.2469 41.48,42.9135 40.5,45.5C 39.7189,44.2713 39.2189,42.938 39,41.5C 38.5172,42.448 38.3505,43.448 38.5,44.5C 37.4334,41.7708 35.4334,40.1041 32.5,39.5C 32.5,39.1667 32.5,38.8333 32.5,38.5C 33.791,38.7373 34.791,38.404 35.5,37.5 Z"/></g>
<g><path style="opacity:0.992" fill="#709355" d="M 63.5,35.5 C 63.8333,36.1667 64.1667,36.8333 64.5,37.5C 64.1667,38.5 63.5,39.1667 62.5,39.5C 59.8599,40.8201 57.1932,42.1534 54.5,43.5C 54.3893,42.8826 54.056,42.3826 53.5,42C 55.1412,40.871 56.1412,39.371 56.5,37.5C 57.5,37.5 58.5,37.5 59.5,37.5C 61.0618,37.2671 62.3951,36.6005 63.5,35.5 Z"/></g>
<g><path style="opacity:0.996" fill="#4c7437" d="M 55.5,37.5 C 55.8333,37.5 56.1667,37.5 56.5,37.5C 56.1412,39.371 55.1412,40.871 53.5,42C 54.056,42.3826 54.3893,42.8826 54.5,43.5C 51.8333,43.5 49.1667,43.5 46.5,43.5C 46.8333,42.5 47.5,41.8333 48.5,41.5C 49.1667,41.1667 49.8333,40.8333 50.5,40.5C 51.3745,38.31 53.0411,37.31 55.5,37.5 Z"/></g>
<g><path style="opacity:0.996" fill="#82cd4f" d="M 32.5,39.5 C 35.4334,40.1041 37.4334,41.7708 38.5,44.5C 38.5,45.1667 38.5,45.8333 38.5,46.5C 37.8333,46.5 37.1667,46.5 36.5,46.5C 36.5,45.8333 36.1667,45.5 35.5,45.5C 34.0003,43.8214 32.167,42.4881 30,41.5C 29.8119,39.9387 30.6453,39.272 32.5,39.5 Z"/></g>
<g><path style="opacity:0.996" fill="#5fa334" d="M 27.5,38.5 C 29.1667,38.5 30.8333,38.5 32.5,38.5C 32.5,38.8333 32.5,39.1667 32.5,39.5C 30.6453,39.272 29.8119,39.9387 30,41.5C 32.167,42.4881 34.0003,43.8214 35.5,45.5C 34.8333,45.5 34.1667,45.5 33.5,45.5C 32.3285,44.6554 30.9952,43.9887 29.5,43.5C 28.6016,42.8423 27.6016,42.1757 26.5,41.5C 26.8627,40.8165 27.1961,40.1499 27.5,39.5C 27.5,39.1667 27.5,38.8333 27.5,38.5 Z"/></g>
<g><path style="opacity:0.98" fill="#a99ba7" d="M 18.5,43.5 C 19.609,43.5569 20.609,43.8902 21.5,44.5C 24.7472,47.4336 27.4138,50.7669 29.5,54.5C 25.5,51.1667 21.8333,47.5 18.5,43.5 Z"/></g>
<g><path style="opacity:0.996" fill="#d0abdb" d="M 62.5,39.5 C 62.1551,42.1979 60.8218,44.1979 58.5,45.5C 56.8333,45.5 55.1667,45.5 53.5,45.5C 48.3127,44.4759 45.3127,46.4759 44.5,51.5C 44.5,52.1667 44.1667,52.5 43.5,52.5C 43.3862,50.2821 42.7196,48.2821 41.5,46.5C 42.7095,46.0679 43.7095,45.4013 44.5,44.5C 45.1667,44.1667 45.8333,43.8333 46.5,43.5C 49.1667,43.5 51.8333,43.5 54.5,43.5C 57.1932,42.1534 59.8599,40.8201 62.5,39.5 Z"/></g>
<g><path style="opacity:0.996" fill="#887c95" d="M 21.5,44.5 C 22.1667,44.5 22.8333,44.5 23.5,44.5C 24.8775,45.2344 26.3775,45.9011 28,46.5C 30.3208,49.4741 31.8208,52.8074 32.5,56.5C 31.8333,56.1667 31.1667,55.8333 30.5,55.5C 29.8333,55.5 29.5,55.1667 29.5,54.5C 27.4138,50.7669 24.7472,47.4336 21.5,44.5 Z"/></g>
<g><path style="opacity:0.996" fill="#78688a" d="M 23.5,44.5 C 26.8333,44.8333 30.1667,45.1667 33.5,45.5C 34.1667,45.5 34.8333,45.5 35.5,45.5C 36.1667,45.5 36.5,45.8333 36.5,46.5C 35.7611,46.369 35.0944,46.5357 34.5,47C 35.9007,47.4101 37.234,47.9101 38.5,48.5C 38.5,48.8333 38.5,49.1667 38.5,49.5C 37.5041,49.5858 36.6708,49.2524 36,48.5C 35.51,49.7932 35.3433,51.1266 35.5,52.5C 34.6851,51.5707 33.8518,50.5707 33,49.5C 32.6664,51.8473 32.833,54.1806 33.5,56.5C 33.1667,56.5 32.8333,56.5 32.5,56.5C 31.8208,52.8074 30.3208,49.4741 28,46.5C 26.3775,45.9011 24.8775,45.2344 23.5,44.5 Z"/></g>
<g><path style="opacity:0.992" fill="#b99cbd" d="M 53.5,45.5 C 55.1667,45.5 56.8333,45.5 58.5,45.5C 56.502,47.5998 54.3353,49.5998 52,51.5C 50.0972,53.441 49.2639,55.7743 49.5,58.5C 48.7784,58.0825 48.2784,57.4158 48,56.5C 47.6174,57.056 47.1174,57.3893 46.5,57.5C 47.4694,54.8868 48.8027,52.5534 50.5,50.5C 50.7215,48.3364 51.7215,46.6697 53.5,45.5 Z"/></g>
<g><path style="opacity:0.996" fill="#aa83c0" d="M 53.5,45.5 C 51.7215,46.6697 50.7215,48.3364 50.5,50.5C 48.3792,50.3253 46.3792,50.6586 44.5,51.5C 45.3127,46.4759 48.3127,44.4759 53.5,45.5 Z"/></g>
<g><path style="opacity:0.996" fill="#807483" d="M 38.5,49.5 C 39.2302,53.0606 39.8969,56.7272 40.5,60.5C 39.5,60.5 38.5,60.5 37.5,60.5C 37.5,60.1667 37.5,59.8333 37.5,59.5C 36.8333,57.1667 36.1667,54.8333 35.5,52.5C 35.3433,51.1266 35.51,49.7932 36,48.5C 36.6708,49.2524 37.5041,49.5858 38.5,49.5 Z"/></g>
<g><path style="opacity:0.996" fill="#95889e" d="M 38.5,49.5 C 38.5,49.1667 38.5,48.8333 38.5,48.5C 39.4959,48.4142 40.3292,48.7476 41,49.5C 41.4966,51.8098 41.6633,54.1432 41.5,56.5C 41.5,57.5 41.5,58.5 41.5,59.5C 41.5,60.1667 41.1667,60.5 40.5,60.5C 39.8969,56.7272 39.2302,53.0606 38.5,49.5 Z"/></g>
<g><path style="opacity:0.996" fill="#bea1cb" d="M 36.5,46.5 C 37.1667,46.5 37.8333,46.5 38.5,46.5C 39.5,46.5 40.5,46.5 41.5,46.5C 42.7196,48.2821 43.3862,50.2821 43.5,52.5C 43.7709,54.3797 43.1042,55.713 41.5,56.5C 41.6633,54.1432 41.4966,51.8098 41,49.5C 40.3292,48.7476 39.4959,48.4142 38.5,48.5C 37.234,47.9101 35.9007,47.4101 34.5,47C 35.0944,46.5357 35.7611,46.369 36.5,46.5 Z"/></g>
<g><path style="opacity:0.996" fill="#af7fb8" d="M 50.5,50.5 C 48.8027,52.5534 47.4694,54.8868 46.5,57.5C 44.9505,58.4408 43.2838,59.1075 41.5,59.5C 41.5,58.5 41.5,57.5 41.5,56.5C 43.1042,55.713 43.7709,54.3797 43.5,52.5C 44.1667,52.5 44.5,52.1667 44.5,51.5C 46.3792,50.6586 48.3792,50.3253 50.5,50.5 Z"/></g>
<g><path style="opacity:0.996" fill="#604c6a" d="M 35.5,52.5 C 36.1667,54.8333 36.8333,57.1667 37.5,59.5C 35.0274,59.9118 33.6941,58.9118 33.5,56.5C 32.833,54.1806 32.6664,51.8473 33,49.5C 33.8518,50.5707 34.6851,51.5707 35.5,52.5 Z"/></g>
<g><path style="opacity:0.996" fill="#916f52" d="M 30.5,55.5 C 31.1667,55.8333 31.8333,56.1667 32.5,56.5C 32.8333,56.5 33.1667,56.5 33.5,56.5C 33.6941,58.9118 35.0274,59.9118 37.5,59.5C 37.5,59.8333 37.5,60.1667 37.5,60.5C 37.0618,60.4346 36.7284,60.6012 36.5,61C 38.0664,61.6082 39.3998,62.4415 40.5,63.5C 39.8333,63.5 39.1667,63.5 38.5,63.5C 37.1667,62.1667 35.8333,62.1667 34.5,63.5C 33.1667,63.5 31.8333,63.5 30.5,63.5C 29.1201,63.0377 28.4534,62.0377 28.5,60.5C 29.1869,58.8228 29.8535,57.1561 30.5,55.5 Z"/></g>
<g><path style="opacity:0.996" fill="#d1a978" d="M 49.5,58.5 C 51.676,59.7133 52.0093,61.38 50.5,63.5C 49.675,64.3857 48.675,64.719 47.5,64.5C 46.0413,64.4326 44.7079,64.7659 43.5,65.5C 42.5,64.8333 41.5,64.1667 40.5,63.5C 39.3998,62.4415 38.0664,61.6082 36.5,61C 36.7284,60.6012 37.0618,60.4346 37.5,60.5C 38.5,60.5 39.5,60.5 40.5,60.5C 41.1667,60.5 41.5,60.1667 41.5,59.5C 43.2838,59.1075 44.9505,58.4408 46.5,57.5C 47.1174,57.3893 47.6174,57.056 48,56.5C 48.2784,57.4158 48.7784,58.0825 49.5,58.5 Z"/></g>
<g><path style="opacity:0.996" fill="#948466" d="M 38.5,63.5 C 38.5,64.1667 38.1667,64.5 37.5,64.5C 35.8606,66.8061 33.8606,68.8061 31.5,70.5C 30.7611,70.631 30.0944,70.4643 29.5,70C 30.2524,69.3292 30.5858,68.4959 30.5,67.5C 32.2644,66.674 33.5977,65.3407 34.5,63.5C 35.8333,62.1667 37.1667,62.1667 38.5,63.5 Z"/></g>
<g><path style="opacity:0.961" fill="#ab98ab" d="M 30.5,63.5 C 31.8333,63.5 33.1667,63.5 34.5,63.5C 33.5977,65.3407 32.2644,66.674 30.5,67.5C 30.5,66.1667 30.5,64.8333 30.5,63.5 Z"/></g>
<g><path style="opacity:0.996" fill="#9772a2" d="M 38.5,63.5 C 39.1667,63.5 39.8333,63.5 40.5,63.5C 41.5,64.1667 42.5,64.8333 43.5,65.5C 43.8333,66.1667 44.1667,66.8333 44.5,67.5C 43.5,67.5 42.5,67.5 41.5,67.5C 41.44,66.9569 41.1067,66.6236 40.5,66.5C 39.52,69.0865 39.1866,71.7531 39.5,74.5C 38.8826,74.3893 38.3826,74.056 38,73.5C 37.502,70.5184 37.3354,67.5184 37.5,64.5C 38.1667,64.5 38.5,64.1667 38.5,63.5 Z"/></g>
<g><path style="opacity:0.969" fill="#e2c59a" d="M 47.5,64.5 C 51.2901,67.0046 51.2901,69.3379 47.5,71.5C 47.2624,69.5956 46.2624,68.2623 44.5,67.5C 44.1667,66.8333 43.8333,66.1667 43.5,65.5C 44.7079,64.7659 46.0413,64.4326 47.5,64.5 Z"/></g>
<g><path style="opacity:0.996" fill="#c49ac9" d="M 41.5,67.5 C 42.5,67.5 43.5,67.5 44.5,67.5C 46.2624,68.2623 47.2624,69.5956 47.5,71.5C 46.3406,73.2503 44.674,74.2503 42.5,74.5C 42.552,72.0971 42.2186,69.7638 41.5,67.5 Z"/></g>
<g><path style="opacity:0.996" fill="#cc9eda" d="M 41.5,67.5 C 42.2186,69.7638 42.552,72.0971 42.5,74.5C 41.5,74.5 40.5,74.5 39.5,74.5C 39.1866,71.7531 39.52,69.0865 40.5,66.5C 41.1067,66.6236 41.44,66.9569 41.5,67.5 Z"/></g>
<g><path style="opacity:0.996" fill="#7f6889" d="M 37.5,64.5 C 37.3354,67.5184 37.502,70.5184 38,73.5C 38.3826,74.056 38.8826,74.3893 39.5,74.5C 40.5,74.5 41.5,74.5 42.5,74.5C 39.0671,75.8759 35.7338,75.3759 32.5,73C 31.7476,72.3292 31.4142,71.4959 31.5,70.5C 33.8606,68.8061 35.8606,66.8061 37.5,64.5 Z"/></g>
</svg>
