<svg xmlns="http://www.w3.org/2000/svg" width="200" height="65" fill="none" viewBox="0 0 200 65"><path fill="#D17D2F" d="M182.848 0q4.968 0 8.68 2.259 3.764 2.258 5.804 6.513 2.091 4.201 2.091 10.242 0 5.883-2.144 10.295-2.091 4.413-5.856 6.88-3.764 2.47-8.627 2.47-4.967 0-8.732-2.259-3.713-2.259-5.804-6.513-2.04-4.254-2.039-10.243 0-5.882 2.143-10.294 2.145-4.413 5.857-6.881Q177.985 0 182.848 0m-.209.945q-3.399 0-5.909 2.364t-3.921 6.513q-1.36 4.15-1.36 9.612 0 5.568 1.517 9.717 1.568 4.098 4.183 6.356 2.666 2.206 5.856 2.206 3.399 0 5.908-2.364t3.87-6.513q1.411-4.201 1.411-9.612 0-5.62-1.568-9.717-1.517-4.097-4.131-6.303-2.614-2.259-5.856-2.259m-20.717-.21v1.05q-1.779.054-2.719.526-.89.473-1.203 1.523t-.314 2.994v31.358h-1.202L134.523 4.097V31.83q0 1.89.314 2.994a2.55 2.55 0 0 0 1.359 1.523q1.046.42 3.085.526v1.05q-.941-.105-2.457-.105a83 83 0 0 0-2.876-.052q-1.308 0-2.667.052-1.307 0-2.196.105v-1.05q1.778-.105 2.667-.526.94-.472 1.255-1.523.313-1.102.313-2.994V6.303q0-1.944-.313-2.836-.315-.945-1.255-1.26-.89-.369-2.667-.421V.736q.89.052 2.196.104 1.359.053 2.667.053 1.15 0 2.196-.053 1.045-.053 1.882-.105l18.458 28.574V6.83q0-1.944-.366-2.995-.315-1.05-1.36-1.523-.993-.472-3.033-.525V.736q.942.052 2.458.104 1.568.053 2.876.053 1.36 0 2.666-.053 1.36-.053 2.197-.105M111.864.473l12.758 33.038q.785 1.996 1.778 2.679.993.63 1.83.683v1.05a26 26 0 0 0-2.562-.105 88 88 0 0 0-3.033-.052q-2.039 0-3.817.052-1.778 0-2.876.105v-1.05q2.667-.105 3.399-.893.732-.84-.314-3.52l-9.725-26.105.837-.682-9.098 23.741q-.837 2.1-.994 3.572-.157 1.418.261 2.258.471.84 1.517 1.209 1.098.367 2.719.42v1.05a43 43 0 0 0-3.085-.105 88 88 0 0 0-2.928-.052q-1.308 0-2.249.052-.888 0-1.673.105v-1.05q1.046-.263 2.144-1.208 1.098-.998 1.987-3.362L111.027.473zm6.379 22.323v1.05h-15.582l.523-1.05z"/><path fill="#D17D2F" d="M63.266.735q1.097.053 2.876.105 1.778.053 3.503.053 2.457 0 4.706-.053 2.248-.052 3.19-.052 4.234 0 7.006 1.208 2.824 1.207 4.183 3.309 1.412 2.048 1.412 4.622 0 1.575-.628 3.362-.627 1.785-2.196 3.362-1.516 1.575-4.183 2.626-2.667.998-6.745.998h-5.02v-1.05h4.497q3.713 0 5.647-1.156 1.987-1.209 2.667-3.152.732-1.995.732-4.412 0-4.149-1.987-6.408-1.934-2.31-6.693-2.311-2.405 0-3.137.893t-.732 3.624v26.053q0 1.89.314 2.836.314.945 1.202 1.26.942.315 2.72.42v1.051q-1.203-.105-3.033-.105a130 130 0 0 0-7.425 0q-1.778 0-2.876.105v-1.05q1.778-.105 2.667-.42.94-.315 1.254-1.261t.314-2.836V6.303q0-1.944-.314-2.836-.314-.945-1.254-1.26-.89-.369-2.667-.421zm8.314 18.647q2.823.105 4.444.262 1.62.105 2.614.21 1.047.105 1.987.263 3.505.578 5.02 2.154 1.57 1.522 2.3 4.78l1.308 5.357q.522 2.31 1.046 3.362.574.998 1.725.945.889-.053 1.464-.578.627-.525 1.307-1.418l.785.578q-1.099 1.629-2.301 2.521-1.15.84-3.294.84-1.935 0-3.399-1.155t-2.196-4.517l-1.15-5.253q-.471-2.258-1.098-3.887-.576-1.68-1.673-2.626-1.046-.945-3.138-.945h-5.647zM58.88.735v1.05q-1.776.054-2.718.421-.89.315-1.203 1.26-.314.893-.314 2.837v26.053q0 1.89.314 2.836.314.945 1.203 1.26.941.315 2.719.42v1.051q-1.203-.105-3.033-.105a130 130 0 0 0-7.425 0q-1.778 0-2.876.105v-1.05q1.778-.105 2.667-.42.942-.315 1.255-1.261.315-.946.314-2.836V6.303q0-1.944-.314-2.836-.314-.945-1.255-1.26-.889-.369-2.667-.421V.736q1.098.052 2.876.104a130 130 0 0 0 7.425 0q1.83-.053 3.033-.105m-17.731 0v1.05q-1.777.054-2.719.421-.888.315-1.202 1.26-.315.893-.314 2.837v26.053q0 1.89.314 2.836.314.945 1.202 1.26.942.315 2.72.42v1.051q-1.203-.105-3.033-.105a130 130 0 0 0-7.425 0q-1.778 0-2.876.105v-1.05q1.777-.105 2.667-.42.94-.315 1.255-1.261.313-.945.313-2.837V3.467l.21.157L19.45 38.186h-.837L5.438 4.097V31.83q0 1.89.314 2.994a2.55 2.55 0 0 0 1.36 1.523q1.045.42 3.084.526v1.05q-.941-.105-2.457-.105a83 83 0 0 0-2.876-.052q-1.307 0-2.667.052-1.306 0-2.196.105v-1.05q1.777-.105 2.667-.526.94-.472 1.255-1.523.313-1.102.313-2.994V6.303q0-1.944-.313-2.836-.315-.945-1.255-1.26-.89-.369-2.667-.421V.736Q.89.787 2.196.84q1.359.053 2.667.053 1.15 0 2.353-.053Q8.47.787 9.307.735l11.87 31.41-.89.42L32.053.894h2.458q1.83 0 3.608-.053 1.83-.053 3.032-.105m143.347 62.057V48.2h8.124v.826h-7.233v6.05h6.798v.826h-6.798v6.064h7.404v.827zM179.391 48.2h.891v9.662q0 1.49-.692 2.658a5 5 0 0 1-1.909 1.838q-1.212.67-2.786.67-1.567 0-2.787-.67a5.04 5.04 0 0 1-1.916-1.845q-.692-1.17-.684-2.651v-9.663h.89v9.613q0 1.261.57 2.245a4.2 4.2 0 0 0 1.589 1.553q1.012.563 2.338.563 1.325 0 2.337-.563a4.14 4.14 0 0 0 1.582-1.553q.577-.984.577-2.245zm-19.35 10.033h1.026l2.124 2.8.199.27 2.152 2.858h-1.026l-1.767-2.344-.185-.257zm5.986-2.737q0 2.259-.784 3.948-.784 1.682-2.181 2.615-1.39.934-3.206.934-1.824 0-3.221-.934-1.39-.94-2.173-2.622-.784-1.69-.784-3.94 0-2.26.784-3.941.79-1.682 2.18-2.615 1.39-.941 3.214-.941 1.817 0 3.206.934 1.396.933 2.181 2.622.784 1.68.784 3.94m-.87 0q0-2.03-.684-3.52-.677-1.49-1.874-2.301-1.197-.82-2.743-.82t-2.744.812q-1.197.805-1.881 2.302-.677 1.49-.677 3.527 0 2.017.67 3.513.677 1.49 1.874 2.309t2.758.82q1.546 0 2.743-.813 1.197-.82 1.874-2.309.684-1.488.684-3.52M150.195 48.2v14.593h-.891V48.2zm-14.362.826v-.827h10.226v.827h-4.668v13.767h-.89V49.026zm-4.138-.826h.891v9.662q0 1.49-.692 2.658a5 5 0 0 1-1.909 1.838q-1.212.67-2.786.67-1.568 0-2.787-.67a5.04 5.04 0 0 1-1.916-1.845q-.691-1.17-.684-2.651v-9.663h.89v9.613q0 1.261.57 2.245a4.2 4.2 0 0 0 1.589 1.553q1.012.563 2.338.563 1.324 0 2.337-.563a4.14 4.14 0 0 0 1.582-1.553q.577-.984.577-2.245zm-13.364 7.296q0 2.259-.784 3.948-.783 1.682-2.18 2.615-1.39.934-3.207.934-1.824 0-3.221-.934-1.39-.94-2.173-2.622-.784-1.69-.784-3.94 0-2.26.784-3.941.79-1.682 2.18-2.615 1.39-.941 3.214-.941 1.817 0 3.207.934 1.397.933 2.18 2.622.784 1.68.784 3.94m-.869 0q0-2.03-.685-3.52-.676-1.49-1.874-2.301-1.197-.82-2.743-.82t-2.743.812q-1.197.805-1.882 2.302-.676 1.49-.676 3.527 0 2.017.669 3.513.677 1.49 1.874 2.309t2.758.82q1.546 0 2.743-.813 1.198-.82 1.874-2.309.685-1.488.685-3.52M93.81 62.793V48.2h4.738q1.325 0 2.238.47a3.23 3.23 0 0 1 1.382 1.318q.477.847.477 1.974 0 .883-.285 1.567t-.798 1.133a2.8 2.8 0 0 1-1.19.613v.086a2.7 2.7 0 0 1 1.404.527 3.3 3.3 0 0 1 1.04 1.261q.399.798.399 1.86 0 1.119-.484 1.974-.478.848-1.432 1.333-.956.477-2.366.477zm.89-.827h4.233q1.645 0 2.529-.826.891-.827.891-2.13 0-.92-.435-1.647a3.07 3.07 0 0 0-1.189-1.147q-.763-.428-1.768-.428h-4.26zm0-6.99h4.154q.934 0 1.582-.406.656-.406.998-1.09.35-.684.349-1.518 0-1.355-.841-2.145-.84-.79-2.394-.791H94.7zm-19.036 7.817V48.2h4.496q1.383 0 2.38.541a3.77 3.77 0 0 1 1.532 1.504q.534.954.535 2.223 0 1.254-.535 2.209a3.75 3.75 0 0 1-1.532 1.482q-.99.534-2.373.534h-4.026v-.833h4.005q1.126 0 1.924-.42.798-.421 1.225-1.177.428-.762.428-1.795 0-1.04-.428-1.81a2.95 2.95 0 0 0-1.232-1.204q-.799-.428-1.924-.428h-3.584v13.767zm5.992-6.613 3.592 6.613h-1.026l-3.57-6.613zm-17.808 6.613V48.2h8.123v.826h-7.233v6.05h6.798v.826h-6.798v6.064h7.404v.827zm-15.86 0L43.976 48.2h.926l3.563 13.218h.086L52.056 48.2h1.084l3.505 13.218h.086L60.294 48.2h.919l-4.012 14.593h-1.026L52.634 49.66h-.079l-3.541 13.133zm-5.904-7.297q0 2.259-.784 3.948-.784 1.682-2.18 2.615-1.39.934-3.207.934-1.825 0-3.22-.934-1.39-.94-2.174-2.622-.783-1.69-.784-3.94 0-2.26.784-3.941.79-1.682 2.18-2.615Q34.09 48 35.914 48q1.817 0 3.207.934 1.396.933 2.18 2.622.784 1.68.784 3.94m-.87 0q0-2.03-.683-3.52-.677-1.49-1.874-2.301-1.197-.82-2.744-.82-1.545 0-2.743.812-1.197.805-1.881 2.302-.678 1.49-.677 3.527 0 2.017.67 3.513.676 1.49 1.874 2.309t2.757.82q1.547 0 2.744-.813 1.197-.82 1.874-2.309.684-1.488.684-3.52m-21.459 7.297V48.2h.891v13.766h7.126v.827zM8 62.793V48.2h8.145v.826H8.89v6.05h6.577v.826H8.89v6.89z"/></svg>